<svg width="66" height="40" viewBox="0 0 66 40" fill="none" xmlns="http://www.w3.org/2000/svg">
<g opacity="0.1">
<path d="M10.8766 1.11127C9.22409 1.45322 7.73891 2.36346 6.67237 3.68793C5.60584 5.01241 5.02346 6.66977 5.0238 8.37952V30.6664C5.0238 31.0598 5.17796 31.437 5.45236 31.7152C5.72676 31.9934 6.09893 32.1497 6.487 32.1497H34.2876V26.2757H25.5085C21.6279 26.2757 17.9062 24.713 15.1622 21.9312C12.4181 19.1494 10.8766 15.3766 10.8766 11.4426V1.11127Z" fill="#848484"/>
<path d="M37.9309 26.2757V32.1496H62.0736C62.8497 32.1496 63.594 31.8371 64.1428 31.2807C64.6916 30.7244 64.9999 29.9698 64.9999 29.183V26.2757H37.9309Z" fill="#848484"/>
</g>
<path d="M50.4266 15.8925H44.5299C44.3359 15.8925 44.1498 15.8143 44.0126 15.6753C43.8754 15.5362 43.7983 15.3475 43.7983 15.1508V11.4425C43.7983 11.2458 43.8754 11.0572 44.0126 10.9181C44.1498 10.779 44.3359 10.7009 44.5299 10.7009H47.8148C47.9309 10.7014 48.0451 10.7299 48.1482 10.7841C48.2512 10.8383 48.3401 10.9165 48.4074 11.0124L51.0192 14.7207C51.0969 14.8313 51.1432 14.9616 51.1529 15.0971C51.1626 15.2326 51.1354 15.3683 51.0743 15.4892C51.0131 15.6101 50.9204 15.7117 50.8061 15.7828C50.6919 15.8539 50.5606 15.8919 50.4266 15.8925Z" fill="#FFC599"/>
<path d="M5.38953 20.6836H15.6319" stroke="#FFC599" stroke-width="2" stroke-linecap="round" stroke-linejoin="round"/>
<path d="M19.2899 20.6836H20.0215" stroke="#FFC599" stroke-width="2" stroke-linecap="round" stroke-linejoin="round"/>
<path d="M54.3918 15.8332L49.3438 9.00989C49.2075 8.82567 49.0308 8.67615 48.8276 8.57316C48.6244 8.47018 48.4004 8.41656 48.1732 8.41656H39.3941C39.006 8.41656 38.6339 8.57284 38.3595 8.85102C38.0851 9.12919 37.9309 9.50648 37.9309 9.89988V32.1496H62.0736C62.8497 32.1496 63.594 31.8371 64.1428 31.2807C64.6916 30.7244 64.9999 29.9698 64.9999 29.183V20.2831C64.9999 19.4963 64.6916 18.7417 64.1428 18.1854C63.594 17.629 62.8497 17.3165 62.0736 17.3165H57.3182C56.7503 17.3165 56.1902 17.1824 55.6823 16.925C55.1744 16.6675 54.7325 16.2937 54.3918 15.8332Z" stroke="#848484" stroke-width="2" stroke-linecap="round" stroke-linejoin="round"/>
<path d="M51.4655 38.8839C55.1019 38.8839 58.0498 35.8954 58.0498 32.209C58.0498 28.5225 55.1019 25.5341 51.4655 25.5341C47.829 25.5341 44.8811 28.5225 44.8811 32.209C44.8811 35.8954 47.829 38.8839 51.4655 38.8839Z" fill="white" stroke="#848484" stroke-width="2" stroke-linecap="round" stroke-linejoin="round"/>
<path d="M41.9694 20.6836H44.8957" stroke="#848484" stroke-width="2" stroke-linecap="round" stroke-linejoin="round"/>
<path d="M35.5679 38.8839H61.4883" stroke="#848484" stroke-width="2" stroke-linecap="round" stroke-linejoin="round"/>
<path d="M8.97437 38.8839H30.4687" stroke="#848484" stroke-width="2" stroke-linecap="round" stroke-linejoin="round"/>
<path d="M5.38953 38.8839H5.98943" stroke="#848484" stroke-width="2" stroke-linecap="round" stroke-linejoin="round"/>
<path d="M48.5976 17.3759H42.701C42.5069 17.3759 42.3208 17.2977 42.1836 17.1586C42.0464 17.0196 41.9694 16.8309 41.9694 16.6342V12.9259C41.9694 12.7292 42.0464 12.5406 42.1836 12.4015C42.3208 12.2624 42.5069 12.1843 42.701 12.1843H45.9858C46.1019 12.1848 46.2162 12.2133 46.3192 12.2675C46.4222 12.3217 46.5111 12.3999 46.5784 12.4958L49.1902 16.2041C49.268 16.3147 49.3142 16.445 49.3239 16.5805C49.3336 16.716 49.3064 16.8517 49.2453 16.9726C49.1841 17.0935 49.0914 17.1951 48.9772 17.2662C48.863 17.3373 48.7317 17.3752 48.5976 17.3759Z" stroke="#848484" stroke-width="2" stroke-linecap="round" stroke-linejoin="round"/>
<path d="M1 23.6799H4.65798" stroke="#848484" stroke-width="2" stroke-linecap="round" stroke-linejoin="round"/>
<path d="M3.19482 25.5341H4.65802" stroke="#848484" stroke-width="2" stroke-linecap="round" stroke-linejoin="round"/>
<path d="M5.00916 8.41659V30.6663C5.00916 31.0597 5.16331 31.437 5.43771 31.7152C5.71212 31.9934 6.08428 32.1497 6.47235 32.1497H34.273V2.48332C34.273 2.08992 34.1188 1.71263 33.8444 1.43445C33.57 1.15628 33.1979 1 32.8098 1H12.3251C10.3848 1 8.52396 1.78139 7.15195 3.17227C5.77994 4.56315 5.00916 6.44959 5.00916 8.41659Z" stroke="#848484" stroke-width="2" stroke-linecap="round" stroke-linejoin="round"/>
<path d="M19.641 38.8839C23.2774 38.8839 26.2254 35.8954 26.2254 32.209C26.2254 28.5225 23.2774 25.5341 19.641 25.5341C16.0046 25.5341 13.0566 28.5225 13.0566 32.209C13.0566 35.8954 16.0046 38.8839 19.641 38.8839Z" fill="white" stroke="#848484" stroke-width="2" stroke-linecap="round" stroke-linejoin="round"/>
</svg>
