<svg width="66" height="40" viewBox="0 0 66 40" fill="none" xmlns="http://www.w3.org/2000/svg">
<path opacity="0.1" d="M12.584 12.3978V1.18848C11.7432 1.39591 10.957 1.78433 10.2796 2.32699C9.60229 2.86966 9.0498 3.55366 8.66024 4.33192L5.09595 11.5159V28.1C5.61759 29.0374 6.37853 29.8174 7.30007 30.3595C8.2216 30.9015 9.27025 31.1859 10.3376 31.1831H58.2608C59.8496 31.1831 61.3732 30.5477 62.4967 29.4168C63.6201 28.2858 64.2512 26.7519 64.2512 25.1525V23.7052H23.816C20.8371 23.7052 17.9801 22.5139 15.8737 20.3933C13.7673 18.2728 12.584 15.3967 12.584 12.3978Z" fill="black"/>
<path d="M5.49292 19.5365H15.9761M19.7201 19.5365H20.4689" stroke="#FF9494" stroke-width="2" stroke-linecap="round" stroke-linejoin="round"/>
<path d="M48.6087 11.644H37.6912C37.4926 11.644 37.3021 11.5646 37.1617 11.4232C37.0213 11.2818 36.9424 11.0901 36.9424 10.8902V5.61339C36.9424 5.41347 37.0213 5.22173 37.1617 5.08036C37.3021 4.93899 37.4926 4.85957 37.6912 4.85957H43.3671C43.4656 4.859 43.5633 4.87801 43.6546 4.91553C43.7458 4.95304 43.8288 5.00831 43.8987 5.07818L49.1403 10.3549C49.2459 10.4604 49.318 10.5951 49.3472 10.7419C49.3765 10.8887 49.3616 11.0409 49.3046 11.1792C49.2476 11.3175 49.1509 11.4356 49.027 11.5183C48.903 11.6011 48.7574 11.6448 48.6087 11.644ZM16.4926 11.644H30.9445C31.1431 11.644 31.3335 11.5646 31.474 11.4232C31.6144 11.2818 31.6933 11.0901 31.6933 10.8902V5.61339C31.6933 5.41347 31.6144 5.22173 31.474 5.08036C31.3335 4.93899 31.1431 4.85957 30.9445 4.85957H19.4055C19.2728 4.8598 19.1425 4.89552 19.0281 4.96307C18.9136 5.03062 18.819 5.12758 18.754 5.24402L15.8412 10.5208C15.7772 10.6354 15.7441 10.7649 15.7451 10.8963C15.7462 11.0278 15.7814 11.1567 15.8473 11.2703C15.9131 11.3838 16.0073 11.478 16.1205 11.5436C16.2338 11.6091 16.362 11.6438 16.4926 11.644Z" fill="#FF9494"/>
<path d="M51.2296 11.2972L42.7906 2.76395C42.2339 2.2041 41.573 1.76017 40.8458 1.4575C40.1186 1.15484 39.3393 0.999379 38.5524 1H14.7854C13.6725 0.9992 12.5814 1.31051 11.6344 1.89902C10.6875 2.48753 9.92204 3.32998 9.42402 4.3319L5.72495 11.7872C5.30997 12.6254 5.09462 13.5494 5.09595 14.4859V25.1223C5.09595 26.7218 5.72708 28.2557 6.8505 29.3866C7.97392 30.5176 9.49761 31.1529 11.0864 31.1529H59.0096C60.5984 31.1529 62.1221 30.5176 63.2455 29.3866C64.3689 28.2557 65 26.7218 65 25.1223V19.0918C65 17.4923 64.3689 15.9584 63.2455 14.8275C62.1221 13.6965 60.5984 13.0612 59.0096 13.0612H55.4977C54.7058 13.0658 53.9208 12.9122 53.1882 12.6095C52.4556 12.3067 51.7899 11.8607 51.2296 11.2972Z" stroke="black" stroke-width="2" stroke-linecap="round" stroke-linejoin="round"/>
<path d="M19.3457 38.0278C23.0676 38.0278 26.0849 34.9903 26.0849 31.2434C26.0849 27.4965 23.0676 24.459 19.3457 24.459C15.6237 24.459 12.6064 27.4965 12.6064 31.2434C12.6064 34.9903 15.6237 38.0278 19.3457 38.0278Z" fill="white" stroke="black" stroke-width="2" stroke-linecap="round" stroke-linejoin="round"/>
<path d="M49.2976 38.0278C53.0195 38.0278 56.0368 34.9903 56.0368 31.2434C56.0368 27.4965 53.0195 24.459 49.2976 24.459C45.5756 24.459 42.5583 27.4965 42.5583 31.2434C42.5583 34.9903 45.5756 38.0278 49.2976 38.0278Z" fill="white" stroke="black" stroke-width="2" stroke-linecap="round" stroke-linejoin="round"/>
<path d="M33.1984 19.5365H36.1936M64.8503 21.9563H63.158C62.8394 21.9582 62.5235 21.897 62.2284 21.7761C61.9333 21.6552 61.6647 21.477 61.438 21.2516C61.2114 21.0262 61.031 20.758 60.9073 20.4625C60.7835 20.1669 60.7188 19.8497 60.7169 19.5289C60.7188 19.2082 60.7835 18.891 60.9073 18.5954C61.031 18.2999 61.2114 18.0317 61.438 17.8063C61.6647 17.5809 61.9333 17.4027 62.2284 17.2818C62.5235 17.1609 62.8394 17.0997 63.158 17.1016H64.3785M32.6368 38.0278H59.1594M5.41044 38.0278H27.4102M1.7488 38.0278H2.35533M1 22.5744H4.744M3.2464 24.459H4.744M44.8648 13.1516H33.9472C33.7486 13.1516 33.5582 13.0722 33.4178 12.9308C33.2773 12.7894 33.1984 12.5977 33.1984 12.3978V7.12102C33.1984 6.9211 33.2773 6.72936 33.4178 6.58799C33.5582 6.44662 33.7486 6.3672 33.9472 6.3672H39.6231C39.7217 6.36663 39.8194 6.38564 39.9106 6.42316C40.0018 6.46067 40.0848 6.51594 40.1548 6.58581L45.3964 11.8626C45.502 11.968 45.574 12.1027 45.6033 12.2495C45.6325 12.3963 45.6177 12.5486 45.5607 12.6869C45.5036 12.8251 45.407 12.9432 45.283 13.026C45.1591 13.1087 45.0135 13.1525 44.8648 13.1516ZM12.7487 13.1516H27.2005C27.3991 13.1516 27.5896 13.0722 27.73 12.9308C27.8704 12.7894 27.9493 12.5977 27.9493 12.3978V7.12102C27.9493 6.9211 27.8704 6.72936 27.73 6.58799C27.5896 6.44662 27.3991 6.3672 27.2005 6.3672H15.6615C15.5288 6.36743 15.3986 6.40315 15.2841 6.4707C15.1697 6.53825 15.0751 6.63521 15.0101 6.75165L12.0972 12.0284C12.0332 12.143 12.0001 12.2725 12.0012 12.404C12.0023 12.5354 12.0375 12.6643 12.1033 12.7779C12.1692 12.8914 12.2634 12.9857 12.3766 13.0512C12.4898 13.1168 12.6181 13.1514 12.7487 13.1516Z" stroke="black" stroke-width="2" stroke-linecap="round" stroke-linejoin="round"/>
</svg>
